/* XPM */
static char *_f238793ecf846f6a6dfe90ed972bab42lTXPaMvKWN1NEL3[] = {
/* columns rows colors chars-per-pixel */
"64 64 241 2 ",
"   c None",
".  c #1D1D03",
"X  c #291B06",
"o  c #311D0A",
"O  c #1A240B",
"+  c #1A3706",
"@  c #1C2D12",
"#  c #272908",
"$  c #362708",
"%  c #263804",
"&  c #292714",
"*  c #372816",
"=  c #273717",
"-  c #383517",
";  c #393209",
":  c #2A2D23",
">  c #3D2E26",
",  c #3A3624",
"<  c #323431",
"1  c #452D08",
"2  c #44320B",
"3  c #483705",
"4  c #593C03",
"5  c #442C13",
"6  c #493718",
"7  c #563B17",
"8  c #633C01",
"9  c #693C03",
"0  c #493C25",
"q  c #4B3A2D",
"w  c #1F4105",
"e  c #274405",
"r  c #3B470A",
"t  c #38520E",
"y  c #2D5517",
"u  c #3B5314",
"i  c #3A5B1C",
"p  c #355818",
"a  c #28500F",
"s  c #3B621B",
"d  c #385D21",
"f  c #3B6120",
"g  c #47480A",
"h  c #54420E",
"j  c #5B4406",
"k  c #484618",
"l  c #554719",
"z  c #455717",
"x  c #555916",
"c  c #4E540D",
"v  c #644402",
"b  c #6B4401",
"n  c #64450C",
"m  c #6B4B0D",
"M  c #6A4A02",
"N  c #744C00",
"B  c #764803",
"V  c #66570B",
"C  c #7D5201",
"Z  c #785509",
"A  c #684A15",
"S  c #695519",
"D  c #7B5817",
"F  c #784A17",
"G  c #45611D",
"H  c #6A6319",
"J  c #79621B",
"K  c #7E630A",
"L  c #4C442B",
"P  c #554526",
"I  c #495725",
"U  c #595424",
"Y  c #484637",
"T  c #544537",
"R  c #5D5237",
"E  c #645C2C",
"W  c #675529",
"Q  c #7C5C23",
"!  c #755B27",
"~  c #685A37",
"^  c #69512F",
"/  c #45652A",
"(  c #576425",
")  c #5C6932",
"_  c #686628",
"`  c #7C6523",
"'  c #796629",
"]  c #6C6236",
"[  c #7B6535",
"{  c #717228",
"}  c #5A5544",
"|  c #575748",
" . c #55534B",
".. c #635848",
"X. c #685B53",
"o. c #6A6548",
"O. c #7B7643",
"+. c #6A6656",
"@. c #77675A",
"#. c #747450",
"$. c #716F66",
"%. c #845D03",
"&. c #865C0C",
"*. c #855606",
"=. c #845915",
"-. c #8C6407",
";. c #996403",
":. c #9B6C0D",
">. c #956708",
",. c #9F730A",
"<. c #896618",
"1. c #926514",
"2. c #936D14",
"3. c #9A6C15",
"4. c #966919",
"5. c #9A7518",
"6. c #A57718",
"7. c #A87311",
"8. c #846D2A",
"9. c #8A6B2A",
"0. c #886526",
"q. c #936B23",
"w. c #956A28",
"e. c #8A7428",
"r. c #957123",
"t. c #9B742A",
"y. c #9B7825",
"u. c #886B36",
"i. c #8A7535",
"p. c #997835",
"a. c #966B39",
"s. c #A57923",
"d. c #A87B24",
"f. c #A57B37",
"g. c #B27F30",
"h. c #8C724B",
"j. c #A57E43",
"k. c #877B74",
"l. c #B8861A",
"z. c #B18416",
"x. c #998333",
"c. c #A5812B",
"v. c #AE842C",
"b. c #A98524",
"n. c #B68827",
"m. c #BA922D",
"M. c #AB853B",
"N. c #AD8B3C",
"B. c #A88636",
"V. c #B48C3A",
"C. c #B88B36",
"Z. c #AD943C",
"A. c #BB963B",
"S. c #B79437",
"D. c #C69619",
"F. c #CF9518",
"G. c #C4952A",
"H. c #C3992B",
"J. c #C89426",
"K. c #D49928",
"L. c #C18E35",
"P. c #C49934",
"I. c #CA9B32",
"U. c #C6983B",
"Y. c #D39D35",
"T. c #D19D3A",
"R. c #C08F28",
"E. c #CBA129",
"W. c #D6A32B",
"Q. c #D3A636",
"!. c #D2A93A",
"~. c #9C8548",
"^. c #A98849",
"/. c #B28C49",
"(. c #AD9343",
"). c #BA9548",
"_. c #AA8C54",
"`. c #BC9C53",
"'. c #B69857",
"]. c #AC8E58",
"[. c #BBA258",
"{. c #8F8974",
"}. c #B49663",
"|. c #BCA569",
" X c #ADB874",
".X c #B1BB76",
"XX c #C29544",
"oX c #C39943",
"OX c #CA9D44",
"+X c #C29A4C",
"@X c #CA9E4B",
"#X c #C59A57",
"$X c #D39E40",
"%X c #CAA449",
"&X c #D5A946",
"*X c #CAA659",
"=X c #D6AA57",
"-X c #D9B459",
";X c #CFB256",
":X c #E4B94A",
">X c #E7BA56",
",X c #E1AC4E",
"<X c #C39A63",
"1X c #CCAB63",
"2X c #C4A766",
"3X c #D3AC67",
"4X c #CCB468",
"5X c #D4B465",
"6X c #DBB56B",
"7X c #DEBC6C",
"8X c #D8B667",
"9X c #CBAB72",
"0X c #C7B978",
"qX c #DCBC74",
"wX c #D8B877",
"eX c #D6AB78",
"rX c #E1B563",
"tX c #E4BB6C",
"yX c #E5B966",
"uX c #E3BB73",
"iX c #DBC279",
"pX c #E5C26C",
"aX c #E6C676",
"sX c #F1C77E",
"dX c #E9C057",
"fX c #93968B",
"gX c #9C9B94",
"hX c #8E8B85",
"jX c #A59B98",
"kX c #AFA49E",
"lX c #AFB3AE",
"zX c #D4BA82",
"xX c #D5C184",
"cX c #E9C886",
"vX c #F3CA84",
"bX c #C5C1B8",
"nX c #BEBDC5",
"mX c #FCFCFC",
"MX c #F8F9F9",
"NX c #F2EFED",
"BX c #E0E1D4",
/* pixels */
"                                                                                                                                ",
"                                                        q T T 0 L L P q T Y                                                     ",
"                                                     .5 h 8.' Q Q =.M.v n 2 T  .                                                ",
"                                                | * P [ ` <.<.<.=.s.A.c.(.S 2 $ -                                               ",
"                                              o l ` J D M.1X#X`.`.`.*X4X4Xi.S S 2 $ ,                                           ",
"                                            * ^ 8.<.Z.).*XsXtX=X7XiXiXwXiX2X*XD p.h.o >                                         ",
"                                          0 ! e.`.).aXaXtXyXT.I.>X*XsXwXuXvXrX@X).'.h.$                                         ",
"                                          2 8.<.-X=XN.f.*X=XJ.J.Y.U.%XtXuX=XU.=Xv.(.|.2 ,                                       ",
"                                        * ^ 9.v.&X,.%.*./.tXI.l.D.Y.m.%X8X=XoXOXoX(.i.6 - Y                                     ",
"                                        q u.q.>XW.z.,.-./.vX-X!.K.J.T.%XtX7X%X*XaX`.x U 0  .                                    ",
"                                        5 a.3.K.F.W.7.&.M.5XtX-X-X%X7X5X8XaX5XqX1X'.u.l - L                                     ",
"                                      * 7 0.:.K.F.D.7.3.%.c.uX5X5X1X5X8XiX4X4X5X_.^.^.4 l 6 Y                                   ",
"                                      6 0.t.U.:XW.D.G.6.>.:.n.-X6X6X5X5X;Xy.+XwX_.F =.<.m ].q                                   ",
"                                    5 7 0.5.%X>X>X!.Q.G.l.,.;.d.6X#Xt.q.y.r.0.w.F f.V.*.Z ~.5 T                                 ",
"                                    5 u.-.,.:XH.>XyXI.G.Y.l.:.-.1.r.q.9.9.u.S 4 p.1Xv.%.N `.[ 5                                 ",
"                                    h p.v.6.-X%XtXuX-XoXL.U.g.1.4.<.q.v n 4 _.2X1X8Xv.*.C C.8.2                                 ",
"                                    h p.XXq.D Q Q 9XxX9XwX6Xj.8 A j Z f.#X#X@X=X;XA.1.%.*.C.` 2                                 ",
"                                    h f.v.*.'.! ].i.' [ 8.Q p.'.].].<.).rX8XU.=X-X%Xv.>.B OX' 6                                 ",
"                                    h r.d.d.p.'.(.(.~.~.^.^.).5X9Xp.3.P.>X%X#X1X8XaXB.C 6.&.u.-                                 ",
"                                    $ m 2.m.b 7XA.Z.iXzXzXcX%XA.*X8 >.G.Q.&X3XwXwXaXB.N U.Z l &                                 ",
"                                    @.3 y.H.N aXaXy.[.iXwX5XA.-X3X9 3.T.E.:XsX<X2XcX(.N U.<.*                                   ",
"                                      5 r.z.3.B.7X[.x.9XcX6X-X;XB.w.&.n.Q.!.=Xw./.wXy.2.y.D T                                   ",
"                                      6 <.:.oX8 1XcXp.u._.9XcX^.n 2X8 -.&X&X>.&.^.w.%.S.v ! T                                   ",
"                                      * ` 2.v.C ).'.wXj.9 a.<X^.' |.m &.&X!.7.%.&.*.>.y.m ^ q                                   ",
"                                      0 3 9.3.S.Z M ^.#XeX}.m 9.zX'.m <.%XP.:.C B 3.s.M [ $ $.                                  ",
"                                        6 u.1.>.S.A.<.8 f.wX3X*X'.v 8 <.P.-.8 d.OXC.Z n ] R                                     ",
"                                        * h.q.>.3.2.b.A.5.8 v b b 9 b 1.P.I.A.2.V.*XZ A ] L                                     ",
"                                        > 6 q.-.N b %.%X%XS.).C.C.L.C.3.n.>Xv.V.pX).D l - +.                                    ",
"                                          0 <.5.<.N *.+X-XpXpX8XyX,X6.;.J.>X=X3X-Xc.n 6 Y                                       ",
"                                          0 0.2.4.+X=.=.*XaX@X5.6.d.n.;.l.>XtXV.b.5.4 6 |                                       ",
"                                          L 8.-.-.s.#XF m (.6.6.%.>.m.-.T.$Xd.6.R.6.B P X.                                      ",
"                                          - j 2.2.N f.<X0.v b.H.6.2.m.:.,X&Xl.l.m.C m 7  .                                      ",
"                                            3 9.4.A.B p.2X/.C.n.H.,.Y.;.>X,XK.W.:.4 7 T lX                                      ",
"                                            l ' t.A.V.Z 0.aX%X-.H.l.d.6.-X&XJ.K.6.j 2 +.                                        ",
"                                            L [ 0.&.+Xf.M y.+Xd.l.J.;.m.yXS.l.I.4.j P +.                                        ",
"                                            , ~ 9.q.D (.(.N t.@X6.z.7.OX5XZ 6.m.<.[ 0 X.                                        ",
"                                              o ! 0.p.<.B.V.Z t.%X6.XX8X1XZ b.%.A P > jX                                        ",
"                                              k.$ S *XB.K N./.9 4.*X4.=XZ 4 5.5.1 0 kX                                          ",
"                                                ..W 2XZ.v Z #X#Xb p.tXrXN M b.x.7 {.                                            ",
"                                                hX$ ' e.r.Z =.f.3X6XrX%XP.m.b.V ; bX                                            ",
"                                                  ..S './.<.=.N f.tXm.H.E.I.s.3 {.                                              ",
"                                                  +.l |./.M.).&.@X=XP.;.D.I.p.2 {.                                              ",
"                                                  o.$ u./.XX4.y.rXU.3.;.,.6.A o jX                                              ",
"                                                    ~ 7 M.v.c.*X-Xv.oX3.:.5.7 k.mX                                              ",
"                                                    6 A r.C A.7Xs.XX6X1.:.q.1 @.NX                                              ",
"                                                  ..2 Q <.v.).N.N.qX3Xq.3.g.! . hX                                              ",
"                                                  +.W e.y.oX).N.aX4XqX<.;.L.(.3 {.                                              ",
"                                                  } E J M.).`.qX4XwXwXM.7.L.x.3 o.NX                                            ",
"                                                $.. W ' 0.'.iX2X4X0X9XqX6.S.8.k O fX                                            ",
"                                                | & # k ].0X0X0X0XxX0X|.e.x.l # O fX                                            ",
"                                                 .= @ % + % ) .X X X.Xe % % e + O {.MX                                          ",
"                                              hX: = + y f p G G z z s a y / + + = & gX                                          ",
"                                            gX& L U % e p f d y p a i s f p = = L - : nX                                        ",
"                                          fX& P P h g c z u d p i i p u u z l 6 h U , < lXMX                                    ",
"                                        $.& - P h n j j V { ( z u u c _ ' J =.=.m 4 k # : gXmX                                  ",
"                                      $.& & - ; l j J J J i.' _ _ _ ' 8.8.i.w.q.e.V % % = @ kX                                  ",
"                                      , Y # + + w e r g S i.e.e.e.e.e.` i.x r g c e + + % I Y MX                                ",
"                                      L #.I + + a a e % g _ H V H V H H ( r e e e e + % U O.Y NX                                ",
"                                      $ ~ O.c % t s i i f p p s t / z u i i s t z r % E O.P q MX                                ",
"                                      @.X U E k ( ) / / f p s y i i u u t G ( ( ) U U ~ 6 * jX                                  ",
"                                        $.} * ..~ ~ ] O._ x H c x x _ _ V { ' W E o.L * } fX                                    ",
"                                            k.X...R 5 6 ~ ] ] _ _ _ E U ' ' 2 6 R ..| jXmX                                      ",
"                                                  MXkX..| X.} } } | | | | } $.BXmXMX                                            ",
"                                                        mXMXMXmXmXNXMXMXMXmX                                                    "
};
