/* XPM */
static char *_93997304a044db8f39fda1fcd35f375CbRnJyHVutbse1pQ[] = {
/* columns rows colors chars-per-pixel */
"64 64 46 1 ",
"  c #19A35A",
". c #1AA45B",
"X c #1BA55C",
"o c #1DA75E",
"O c #1EA85F",
"+ c #1FA960",
"@ c #20AB61",
"# c #21AC62",
"$ c #23AE64",
"% c #24AF66",
"& c #25B067",
"* c #26B168",
"= c #29B36A",
"- c #28B46A",
"; c #2AB56C",
": c #2CB76E",
"> c #2CB86E",
", c #2FBA71",
"< c #30BB72",
"1 c #30BC72",
"2 c #33BF75",
"3 c #34BF75",
"4 c #33C075",
"5 c #34C076",
"6 c #35C278",
"7 c #37C479",
"8 c #38C379",
"9 c #39C57B",
"0 c #3AC67C",
"q c #3BC87E",
"w c #3CC87E",
"e c #3DCA80",
"r c #3FCD82",
"t c #40CD82",
"y c #42CF85",
"u c #43D086",
"i c #44D287",
"p c #45D388",
"a c #47D58A",
"s c #48D68B",
"d c #49D78C",
"f c #49D88C",
"g c #4DDA8F",
"h c #4DDB90",
"j c #4FDD92",
"k c #50DF93",
/* pixels */
"oOOoXO@OoOOOX=9#+OoooOo@5=#0%oO,;oOOoo,5OoOOoOOoOOoOOOoOOOoO-9w9",
"Ooo$,6;oOOOX-w&%;X-#ooo6eX55oO2e=oOoo10@oOOoOooOOoOOoOOOoo*5ew,@",
"o*602%oooOo>e-$5+X,-Xo22150&X2w=oOoo1w%oOooOo@@ooOoOOOoo&5ew1%oo",
"o*>#oooO:#,e;@9&oX,, 16X-f2X10%oOoo1w*oOo@+Oo>$#;OOOoo%2eq1%ooOo",
"OoXoOo;6>1e-o8,XOX,1;0@X1f;-9#oOoO2e=oOo&q> O966*ooo&2w0,#ooOoO>",
"oOOOX&p62w*.26OoOo>e0%.=ww04@oOoO2e-oOo*w0@@6f5+ +=5w9>@ooOOo#5e",
"oOOX;ut,5$.>w$oOO.2f*X@99;i*.+o+5e;oOo$00-:0p9.+;9e9;+XoOOOo&9w;",
"Ooo>yu0*oX=e;oOOo%urOo>e,-21Oo+5e;oOo@6w59e501:0w5-+ooOoOoo;ea2.",
"o+50500-.$w1oOOo$9w9X%w92,2p,@5w*X+oo5yew5;1tr91%oooOOo%@O1uae&o",
"o16#150-oe0OoOo@91>r>rsau92015w&.,&.2dy6;X=e6%OoooOOoOo>;5aa6$oO",
"O@oo6>9-9a$oOo@6r9tdudyw*+.*p6#o22$9he:@oo<e&XoOOOOoOoOqesu>OoOo",
"ooo@6&9tf-XOoO50*:>2w09=.OoOq-X5w2ef5@ooOO6-XOOOooOOo+2fd0%ooOo#",
"oOo$1@ij>XOoo1w%Xo.1005OOOOo-96pe0y>.oOOo@9%oOOOoOOo%5pg,ooOOo$7",
"OOo*;;k6.OOo,e=o+o-w0w*oOoOX%dg9-2;XOOoOo&0@oOOOOoo-0ra5 %&oo$0-",
"oOo&5ey*oOo:e;oOo+60w2oOOOo$9t:.&,oOOooOo-9OoOoooo,we16>.*<.#0>X",
"OO.1y,9*oo-e>oOOo>weq#oOOo&00% +2+oOoOOo <5oOo&+o,95,O0*.%2#92oO",
"Oo=u,@0%X*e,oOoo@90>&oOOo*w0%.@9-XOOOoX@,y1oOX,;X+-1o&0#o#615ooO",
"oO;5&$q@+7>oOo+<5w-.oOOo=w9@o>e9oOOoo#,05t1.+o&9@>0$.:9Oo@9%ooOo",
"OO >-@:oO@oOo@9w=-oOOOo=e6@*75q%ooX#,ww-#p:XOOo6yu=oo15oo+9*oOoO",
"OOo<;XooooOo#9u:.oOOOo-w1&20=12oo#,00>@.6i$oOo%tp%oOO9,XOo6-XOoO",
"OOo1:XOOOOo%9u6OoOOOo-0,>91O%0$oX,d1OoX:y0@oo;w29>oo@0-XOo25oOOO",
"OOo2>.OOOo%wuq&oOoOOo$166&Xo@@oOo+10-.*096OO1e>X,9+X*0%oOX1uOoOO",
"OOo2:@@oo*0st>oOOOoX#29-+71ooooo*Oo;9,9251O60*oX$w= >0@oOX-eOoOO",
"OOo251@X*0ua3OoOooO>01+oo*02Ooo1>oOX@ti*5&o;@oo#$51.26OoOo+w*oOO",
"OOo1y*.*07se#oOOO&66&XoOOo@22@21oOOo>w,;2&OXoo-6$*-o91oOoX,a%oOO",
"OoO91oo*-ef-oOOo%01ooOOooOo.-y9OXoX*w5oo&20*@59#oOo@w;oOo,twOoOO",
"oo29+oO 1j5XOOOoO@XOOOOooOo#62*>>*%90@oOoo*502+oOOo*0%XO2q;;OoOo",
"o>w$oOo-dyOoOoOOoX>=oOoOOo%02oo+*1ia0$oOo@29-ooOoOX:0OO5w&XoOooO",
"-w*oOo%tf*XOoOooo15OoOOOo&q1ooOO.:t0=q=X-06#XOOoOOX>>X29$oOOoOOo",
"%%oOo@9d1XOoOo&;29+oOOOo*y1XoOOo=wq#.-e00>ooOOoOOOoOOo%@oOOoO,@o",
"ooOoO5e,oOOOo#wi9#oOOOo-073Oooo$9e6oo=ud, OOoOOOooOooOooOoOX>2XO",
"OOOo,e,XOOOOo9fw#oOooo>e:o912*o5wt-o2w;,w-oOOOooOooOOoOooOo#9=%o",
"OoX=e1ooOOO.1gu#ooo=>,w;oo*w95,ww9-96$oo,w&ooX#=OoOoOOo+Ooo5,@6@",
"o+%q1OoOOOX;fa%oo+1wye-oOOX17ry90w9>ooOoo29o+,5&oOoOOX=,Oo=6+o5:",
"*q,*OoooOo-ad-Xo$90we-oOoo@2iyp4e0$XoOoOoo->6,+.oOOoo>9#oo@@oo-0",
"q1o oo@+o:td,Xo*926w;ooo@>05907w2OoOOOOoo*56% o&@ooO20#oOOooOo+:",
"<O$;<29:>ei5oo-5*1w;oo+:00->w5;u-.+OOoo%59;o.&6e-.#90#oOOOooOooX",
"690090ww000@.-<+2e;++-9q,O&w9&92=$oOX+10,@.O,w9=X$06@oOOoo$,$oOO",
"#$#o;ei9-9*.-5+5e;.:*1,#.@9w&;e$o>%o;93$o.%90;o.=w5+oOoo$26&oOOO",
"ooX%0w2+>1X@5-6w-oX>;.ooO2y>+01ooo6r5&ooo;9>O#>5w,oooX#10,+oOoOO",
"Oo+5w- @5Ooo@9i*o+X,>X+o>eto>w#.#1501oo+,<+@10:<*ooo@<02#XoOoOoo",
"Oo,e1oo>&oO+6r6oooX<,Xo&w66&q>o;9,OX55#-&@,w5#XoooO:95%.*@oOOo@*",
"X&w5+o$;oOo@,-1O%,5i2X@95#weeo%6%XoOo6w%>er;ooOoo&55&o.,1oOOo+5*",
"#05Ooo;#oOOo &w5ww392.:5#5i65OOooOOo+400w2-XOoo%2w4ooo>0@oOo@8,X",
"%,+oo$;oOooO-ws6:%.:2oo&979;6+oOOo.$ee06$ooOo#1957$oo;w&oOo@92oo",
"oXoOo>%ooO*2120OXoX>2X;w,$9,9@ooo+,dy20&XOOo+95,9=oo=e;X+o@65oO@",
"OOOo#<oO11=#.=9oooX:620=.%919+o+O2u6$2,oOOoOO+;w;oo*e1oOo@601376",
"OOOX>=O97+Xoo;q&#%X;0,#oo&919$<0$#@ >6OoOoo>*;e>oo&w2OOo#9q%;,*@",
"OOo@5&05ooO+.;s0w5X;5XoOo&91r0e,Oo.:q@oOo@10ww,oo%05+oo#9w*ooXoo",
"OOX:1-,ooOOo+yj0,@X-5OOOo&wrf0=oo.:a,X+o@65wa>oo#9w$oo#6w-oOOooO",
"OoO8*XooOoo&udr$Xoo=7+ooo2dai%XoO2f1oOo#906pqoo@0p2Oo@6e:oOoO>=o",
"OX-9OoOOoO>u5>9ooOo*9Oo&5ya00oo=qf,.Oo$9q00w2.@ef1oo@5e>oooO@2&o",
"oo5-oOOX%,75.,9OoOo&9%1w079,0*5ei, OOo&90w-,5&uf;Xo@5e,ooO;2+ooO",
"oO%OOoo;<>6@.<6OOo.&twe5#*61pw6w,@&ooo;00= 1tyy%Xo@6e,oo*96$oOOo",
"OooOoo21&0$o@<6oo+-0f7=O -wts;55o%w%o<w0&.*ud>ooo+5e>X#2e1OoOOOo",
"oOOo@62#0-O5&<2O;9e9;+Xo*9we9<0@oo15<w9%O2wy0ooo+5e:O:0q*XoooOoo",
"OOOo&>+91@0> 205e0>@XX#2e9*,65&o+X@uut9209*16Oo+5w;.*0w1o+@@OoOO",
"OOoOoo66*0,O-yp9,#oo@,ww>o #$oooo%wgf1@*;+.19Oo,0*Xo*ry6906-oOOo",
"OoOoo50>w1o2wu4#oo+o*01$O*,,$.+*6sf5->oXooo16Oo#@XO,w3>>;%#;%oOo",
"OOOo,02w,oo@#&oooooO#-,5w05*$>8eae*X.=5#oOo26oooX$60=XX o;95@oOO",
"OOo$750;ooOoooOO@-16ww03;#o,q0201@oOOX=0&oo25oo+:w6#oO+;0w;ooOoo",
"OOoOO*&XOOoOOOO10q06,*+oXo+,;@o+ooOOOOX=&oo22oo&9;OoOo*0,#XOOoOO",
"OoOooooOOoOoOOo%*$@OoooOOOoXXoOoOOoOooOooOo51XOOOooOooOOooOOoOOO",
"OOoOOOOoOOOOooOoooooOOOOOoOOOOOOOoOOOOoOOOo>*oOooOOooOooOOoOOOOO"
};
