/* XPM */
static char *ca46bd330f0a4daf9f20931570654f88AxJla1cS0CVVMfwS[] = {
/* columns rows colors chars-per-pixel */
"64 64 64 1 ",
"  c black",
". c #040404",
"X c gray3",
"o c gray5",
"O c #131313",
"+ c gray8",
"@ c gray10",
"# c #1D1D1D",
"$ c #232323",
"% c #272727",
"& c gray16",
"* c #2D2D2D",
"= c gray20",
"- c #373737",
"; c gray23",
": c #3F3F3F",
"> c #434343",
", c #464646",
"< c #494949",
"1 c gray31",
"2 c gray32",
"3 c gray33",
"4 c #5B5B5B",
"5 c #5F5F5F",
"6 c #626262",
"7 c gray40",
"8 c DimGray",
"9 c #6C6C6C",
"0 c #717171",
"q c #767676",
"w c #797979",
"e c gray49",
"r c #838383",
"t c gray52",
"y c #898989",
"u c gray55",
"i c #909090",
"p c #979797",
"a c #989898",
"s c #9D9D9D",
"d c #A0A0A0",
"f c gray65",
"g c gray66",
"h c #ACACAC",
"j c #B2B2B2",
"k c gray71",
"l c gray73",
"z c gray74",
"x c #C0C0C0",
"c c gray78",
"v c #C8C8C8",
"b c gray81",
"n c #D2D2D2",
"m c gray84",
"M c gray86",
"N c gainsboro",
"B c gray88",
"V c #E6E6E6",
"C c #EAEAEA",
"Z c #ECECEC",
"A c #F1F1F1",
"S c #F6F6F6",
"D c #F8F8F8",
"F c white",
/* pixels */
"FFFFFFFFFFFFFFFFFFFFFFFFFFFFFFFFFFFFFFFFFFFFFFFFFFFFFFFFFFFFFFFF",
"FFFFFFFFFFFFFFFFFFFFFFFFFFFFFFFFFFFFFFFFFFFFFFFFFFFFFFFFFFFFFFFF",
"FFFFFFFFFFFFFFFFFFFFFFFFFFFFFFFFFFFFFFFFFFFFFFFFFFFFFFFFFFFFFFFF",
"FFFFFFFFFFFFFFFFFFFFFFFFFFFFFFFFFFFFFFFFFFFFFFFFFFFFFFFFFFFFFFFF",
"FFFFFFFFFFFFFFFFFFFFFFFFFFFFFFFFFFFFFFFFFFFFFFFFFFFFFFFFFFFFFFFF",
"FFFFFFFFFFFFFFFFFFFFFFFFFFFFFFFFFFFFFFFFFFFFFFFFFFFFFFFFFFFFFFFF",
"FFFFFFFFFFFFFFFFFFFFFFFFFFFFFFFFFFFFFFFFFFFFFFFFFFFFFFFFFFFFFFFF",
"FFFFFFFFFFFFFFFFFFFFFFFFFFFFFFFFFFFFFFFFFFFFFFFFFFFFFFFFFFFFFFFF",
"FFFFFFFFFFFFFFFFFFFFFFFFFFFFFFFFFFFFFFFFFFFFFFFFFFFFFFFFFFFFFFFF",
"FFFFFFFFFFFFFFFFFFFFFFFFFFDVVVVVVVVVZFFFDFFFFFFFFFFFFFFFFFFFFFFF",
"FFFFFFFFFFFFFFFFFFFFFDFDlxu123677788ybvSFFDFFFFFFFFFFFFFFFFFFFFF",
"FFFFFFFFFFFFFFFFFFFDFFbh84xFFSfpppagt. 9nFFDFFFFFFFFFFFFFFFFFFFF",
"FFFFFFFFFFFFFFFFFFFFze+#iuytu7$qqqqwqwt* 0hFFFFFFFFFFFFFFFFFFFFF",
"FFFFFFFFFFFFFFFFFFNqi# o      <FFFFFFFFxrXX0xFFFFFFFFFFFFFFFFFFF",
"FFFFFFFFFFFFFFFFFM;6d#oX  X+X >DDDDAADDFFho $lFFFFFFFFFFFFFFFFFF",
"FFFFFFFFFFFFFFFFM%8pXXX     O ,FFFSSFFFFSSNs @xFFFFFFFFFFFFFFFFF",
"FFFFFFFFFFFFFFFNtctooX      .X:VFASFFFFFFSDF96ukFFFFFFFFFFFFFFFF",
"FFFFFFFFFFFFFFM%Mn XX        . wFSDFFFFFFFAFwqF0kFFFFFFFFFFFFFFF",
"FFFFFFFFFFFFFM-1Z9Oo      .  X5euBFDDFFFFFFFhqVSqzFFFFFFFFFFFFFF",
"FFFFFFFFFFFDF92Fet2 .      5ysFcq00AFFFFFFFAF0aFv3FFFFFFFFFFFFFF",
"FFFFFFFFFFFFleBtuFN:X.   <pVFFAFFhO1yDFFFFASFbqMSuhFFFFFFFFFFFFF",
"FFFFFFFFFFDFqrupFDFZ3o ;zVFFASFFDFmiXrADFDDFCF<hFc+fFFFFFFFFFFFF",
"FFFFFFFFFFFxqwiFFFDFV**MFFDSSFFFFDFSNa#yZmCg%&OgFF84FFFFFFFFFFFF",
"FFFFFFFFFFFi@gFFFFFFF>zFDFSSFFFFFFFSDFi#oXo.   OjFl#jFFFFFFFFFFF",
"FFFFFFFFFFb.eFDFFFFFv8BFASSFFFFFFFFFSAF9        *ZFrfFDFFFFFFFFF",
"FFFFFFFFFFm.rFDFFFFF6kFFASFFFFFFFFFFFSF0 .      oiDztBFFFFFFFFFF",
"FFFFFFFFFDr qFDFFFDF7kFASFFFFFFFFFFFFDFq         -SF4fFFFFFFFFFF",
"FFFFFFFFFZX*NFAFFFDF7kFSFFDFFFFFFFFFFDFq .      .>SF5jFFFFFFFFFF",
"FFFFFFFFFZX2FFDAFFDF7jFFFAADDFFFFFFFFDF0 +     O. tF5fFFFFFFFFFF",
"FFFFFFFFFZX<FFFDAFDF8kFFDAFAAFFFFFFFFDFq XO   O.  <n,hFFFFFFFFFF",
"FFFFFFFFFZX1FFFFDADF6kFFADFAFFFFFFFDDFZ3  .O o.   $3@jFFFFFFFFFF",
"FFFFFFFFFZ.<FDFFFDCF9jFDAFFFSASDSSDAADs-   .#X  . 5F4gFFFFFFFFFF",
"FFFFFFFFFV;0lFDFFSFx=cFDSFFFASASZADAASh$   oXo   +hF4gFFFFFFFFFF",
"FFFFFFFFFN8a0FDFAFz@.3BFDDDASSAZDAAZFFk@ .O. .O. >FF4gFFFFFFFFFF",
"FFFFFFFFFB2ZqpFAFv@ .X&7DSZSDDDDDSFFDg$@.X    .o@xFF4gFFFFFFFFFF",
"FFFFFFFFFB1FpXzFk@   .X 4ZFFFFFDFFMj1emnn2@     2SFF5hFFFFFFFFFF",
"FFFFFFFFFZqmFric@     .O 7nSFDFFBj22ZDFFFFm;;+ -VSDF5fFFFFFFFFFF",
"FFFFFFFFFFz4SF< .       O. 0DFCiw6mFFFSSDFFSFh@zFSDbrMFFFFFFFFFF",
"FFFFFFFFFFl2FFdo        OO  7w08lFFFFSAFFFFFDF2hFDFyfFDFFFFFFFFF",
"FFFFFFFFFFAyjFD*       O. O  0fFFDFFSSDAFFFDFkqVFDc:gFFFFFFFFFFF",
"FFFFFFFFFDFjqFZlO     O.   o+DFDFFFSSFFDAFFDF9dFZFt,FFFFFFFFFFFF",
"FFFFFFFFFFFFwaFC-    O.     +VFFFFSSFFFFDADFd#kFFm#pFDFFFFFFFFFF",
"FFFFFFFFFFDFswFFz   O.      =CFFFSSFFFFFFDZFw5FAFdrFFFFFFFFFFFFF",
"FFFFFFFFFFFFF99FB- OX      XcFAFSSFFFFFFFFDVwaFFm3FFFFFFFFFFFFFF",
"FFFFFFFFFFFFFz@9DB2.       XbFSZSFFFFFFFFDFd8FFFrdFFFFFFFFFFFFFF",
"FFFFFFFFFFFFFFk+MFa        .bFAAAFFFFFFFFDFh8FFiiFFFFFFFFFFFFFFF",
"FFFFFFFFFFFFFFFv6>wkhf# .. eZSDFDADFFFFFFC6=%13dFFFFFFFFFFFFFFFF",
"FFFFFFFFFFFFFFDFk 2FFSbxcccq,7BVSFFDFFDZ8-    iFFFFFFFFFFFFFFFFF",
"FFFFFFFFFFFFFFFFFc-tAFDFFFFBBx:-rnxSFN0XO   .sFFFFFFFFFFFFFFFFFF",
"FFFFFFFFFFFFFFFFFFFsrlDFSDADFFVAa<2hs+.oX .,sFFFFFFFFFFFFFFFFFFF",
"FFFFFFFFFFFFFFFFFFFFj8edFFDDDFFFFFS% O+  3pFFFFFFFFFFFFFFFFFFFFF",
"FFFFFFFFFFFFFFFFFFFFFFiqtenFFFFFFFF& OX1iAFFFFFFFFFFFFFFFFFFFFFF",
"FFFFFFFFFFFFFFFFFFFFFFFDj2*64444442=jkgZFFDFFFFFFFFFFFFFFFFFFFFF",
"FFFFFFFFFFFFFFFFFFFFFFDFFZkkjjkkjjhbFFFFDFFFFFFFFFFFFFFFFFFFFFFF",
"FFFFFFFFFFFFFFFFFFFFFFFFDFFFFFFFFFFFFFDFFFFFFFFFFFFFFFFFFFFFFFFF",
"FFFFFFFFFFFFFFFFFFFFFFFFFFFFFFFFFDFFFFFFFFFFFFFFFFFFFFFFFFFFFFFF",
"FFFFFFFFFFFFFFFFFFFFFFFFFFFFFFFFFFFFFFFFFFFFFFFFFFFFFFFFFFFFFFFF",
"FFFFFFFFFFFFFFFFFFFFFFFFFFFFFFFFFFFFFFFFFFFFFFFFFFFFFFFFFFFFFFFF",
"FFFFFFFFFFFFFFFFFFFFFFFFFFFFFFFFFFFFFFFFFFFFFFFFFFFFFFFFFFFFFFFF",
"FFFFFFFFFFFFFFFFFFFFFFFFFFFFFFFFFFFFFFFFFFFFFFFFFFFFFFFFFFFFFFFF",
"FFFFFFFFFFFFFFFFFFFFFFFFFFFFFFFFFFFFFFFFFFFFFFFFFFFFFFFFFFFFFFFF",
"FFFFFFFFFFFFFFFFFFFFFFFFFFFFFFFFFFFFFFFFFFFFFFFFFFFFFFFFFFFFFFFF",
"FFFFFFFFFFFFFFFFFFFFFFFFFFFFFFFFFFFFFFFFFFFFFFFFFFFFFFFFFFFFFFFF",
"FFFFFFFFFFFFFFFFFFFFFFFFFFFFFFFFFFFFFFFFFFFFFFFFFFFFFFFFFFFFFFFF"
};
