/* XPM */
static char *_20377b382ae4969b9417768aaef26ae5sdzX44mQA2rXCs4[] = {
/* columns rows colors chars-per-pixel */
"64 64 216 2 ",
"   c None",
".  c #010102",
"X  c #070A06",
"o  c #1A0C00",
"O  c #0D190F",
"+  c #0A0E11",
"@  c #091312",
"#  c #141C17",
"$  c #1C1206",
"%  c #271A0B",
"&  c #251C13",
"*  c #13251C",
"=  c #192618",
"-  c #2A2D19",
";  c #3D2A1A",
":  c #38301D",
">  c #1A2C26",
",  c #242424",
"<  c #2A362C",
"1  c #383B39",
"2  c #4D2F17",
"3  c #432D1B",
"4  c #54320C",
"5  c #463D2C",
"6  c #423C36",
"7  c #4D3D31",
"8  c #553A25",
"9  c #632D21",
"0  c #6C3A2F",
"q  c #33402F",
"w  c #3B473C",
"e  c #294036",
"r  c #58432E",
"t  c #4E4734",
"y  c #434B3B",
"u  c #48493B",
"i  c #55493A",
"p  c #4F513C",
"a  c #56533B",
"s  c #654B35",
"d  c #695230",
"f  c #765837",
"g  c #754D29",
"h  c #364846",
"j  c #4A4E45",
"k  c #4C5744",
"l  c #42574F",
"z  c #5A594C",
"x  c #4B5D54",
"c  c #445E56",
"v  c #585854",
"b  c #4A4D54",
"n  c #67594B",
"m  c #745E50",
"M  c #6B594D",
"N  c #5A6558",
"B  c #4A655E",
"V  c #7C654F",
"C  c #63655A",
"Z  c #7C6455",
"A  c #72685F",
"S  c #585B62",
"D  c #666A68",
"F  c #677468",
"G  c #79786D",
"H  c #697874",
"J  c #7B7B73",
"K  c #7A7D7C",
"L  c #757978",
"P  c #885849",
"I  c #895D50",
"U  c #90584B",
"Y  c #8C674C",
"T  c #856B5B",
"R  c #986D5C",
"E  c #8E725D",
"W  c #977358",
"Q  c #A6745D",
"!  c #877768",
"~  c #957966",
"^  c #877E7A",
"/  c #9A6E68",
"(  c #A47B6B",
")  c #7A8677",
"_  c #84887E",
"`  c #868577",
"'  c #9B8373",
"]  c #9D8A7B",
"[  c #A1826D",
"{  c #B18A6D",
"}  c #AB8A76",
"|  c #AE8A7B",
" . c #B18C73",
".. c #B5927C",
"X. c #C6957D",
"o. c #6D8D8C",
"O. c #7C8885",
"+. c #858A83",
"@. c #898A85",
"#. c #898985",
"$. c #918D81",
"%. c #8A9083",
"&. c #89948C",
"*. c #96988A",
"=. c #869996",
"-. c #959B94",
";. c #949499",
":. c #939590",
">. c #A48E83",
",. c #B48E81",
"<. c #A6978A",
"1. c #B49A88",
"2. c #A59F9A",
"3. c #A99B91",
"4. c #B99D93",
"5. c #97A29B",
"6. c #9BA39B",
"7. c #9EA293",
"8. c #95A48D",
"9. c #A7A69A",
"0. c #B6A696",
"q. c #96A5A2",
"w. c #9CABA4",
"e. c #9BA8A9",
"r. c #93AFAB",
"t. c #ABABA2",
"y. c #A4ABA9",
"u. c #A7AAA8",
"i. c #ADB7AB",
"p. c #B2B3A6",
"a. c #B3B4AC",
"s. c #B9BBAE",
"d. c #ACB7B7",
"f. c #B3BEB9",
"g. c #BABDBA",
"h. c #B9B8B3",
"j. c #C19382",
"k. c #C89C8B",
"l. c #C9A68D",
"z. c #C9A697",
"x. c #C7B19A",
"c. c #CEADA1",
"v. c #C3B9AD",
"b. c #C8B7AA",
"n. c #C4BCB4",
"m. c #CDBEB3",
"M. c #D9B5AD",
"N. c #EABAAB",
"B. c #ACC2B7",
"V. c #BDC2BD",
"C. c #B5C6BB",
"Z. c #C4C3BB",
"A. c #CBC4BC",
"S. c #C8C1B5",
"D. c #D8C7B8",
"F. c #BABDC1",
"G. c #BAC5C4",
"H. c #B9CAC3",
"J. c #BDCCCA",
"K. c #B6CCC5",
"L. c #B9D4CB",
"P. c #C0C2C5",
"I. c #C2CAC4",
"U. c #C5CDC9",
"Y. c #C9CAC5",
"T. c #D3CCC4",
"R. c #D2CCCB",
"E. c #C6D1CD",
"W. c #CCD4CA",
"Q. c #C9D8CB",
"!. c #D3D4CC",
"~. c #D7D9CD",
"^. c #D8D5C8",
"/. c #CCD9D2",
"(. c #C9D7D3",
"). c #D4D6D4",
"_. c #D4DAD4",
"`. c #DBDCD4",
"'. c #D5D7D8",
"]. c #DCDCDB",
"[. c #E5D4CA",
"{. c #F1DECF",
"}. c #E2DEDE",
"|. c #E7DAD2",
" X c #DDE5DF",
".X c #D7E5D7",
"XX c #CBE0D5",
"oX c #E2E4DE",
"OX c #E9E9DC",
"+X c #F7E9DF",
"@X c #DDDEE2",
"#X c #D8D5E0",
"$X c #E1DFE2",
"%X c #D5E8E1",
"&X c #E2E5E3",
"*X c #E9E4E3",
"=X c #EDECE7",
"-X c #E4E6E8",
";X c #EBEDEA",
":X c #E8E9E9",
">X c #FEEFE4",
",X c #F2E6EE",
"<X c #F3EBE5",
"1X c #EDF0EE",
"2X c #F1F4E6",
"3X c #FCF5ED",
"4X c #F3F5EB",
"5X c #EFEDF0",
"6X c #F8EDF1",
"7X c #EEF3F2",
"8X c #EBF8F4",
"9X c #F2F5F2",
"0X c #FAFAF5",
"qX c #F3FBFB",
"wX c #FBFCFB",
"eX c #F4F7F8",
/* pixels */
"                                                                                                                                ",
"                                                                                                                                ",
"                                                                                                                                ",
"                                                            J C z `                                                             ",
"                                                        #.. X $ o % ^.                                                          ",
"                                                        1 & 7 M ' 0.+X                                                          ",
"                                                        6 7 T 1.1.Z D.                                                          ",
"                                                      h.7 T [ z.l.M D.                                                          ",
"                                                      |.m E  .l. .} 1.                                                          ",
"                                                        1.~ X.W W ~ '                                                           ",
"                                                      >X0.} { Y R s ]                                                           ",
"                                                      3Xb.1.W Y V Z >X                                                          ",
"                                                    wXZ.D.{.~ 3 ! [.                                                            ",
"                                                  eX7Xh.p.<.m.>.m.3X0X                                                          ",
"                                                wXqXqXeX0X#.A S.<Xz 2.                                                          ",
"                                                qX8XeXwX0XwXJ 6 Y.Y.v Z.                                                        ",
"                                                9X-X5X}.&X0X:.D v K a.G                                                         ",
"                                                $X;XR.u.a.;X_.< . j @.v ;.                                                      ",
"                                                '.@X&Xg.).9X9Xw # K F.U.P.                                                      ",
"                                                -X'.].7X;X9X9X+.+ D b S ;.@X                                                    ",
"                                                  E.E.w.f.:X;X0X1 . . L 7XF.                                                    ",
"                                                  (.w.=.G.&X9X0X@.X @ , -X@Xy.                                                  ",
"                                                    K.E.5.g.oX=X2Xh.v . N wXV.).                                                ",
"                                                      K.E.u.`.`.~.2X2Xp.w 5._.+.9X                                              ",
"                                                        H.U.a.t.s.^.`.4XoXa.oXZ.a.0X                                            ",
"                                                          I.W.Z.G G p.~.oX0X4X3X2.n.+X                                          ",
"                                                          /.;X=Xt._ _ K -.h.oX<X3Xb.z.4.M.  /                                   ",
"                                                            V.i._.oXg.D v , 6 ^ v.4.c.,.I P 9 0 |                               ",
"                                                            C.5.1X-X;X1XP.L C 3.0.>.1.| R P U P P                               ",
"                                                              I.&Xg.).;X7X'.#.^ 9.3.~ T ( ( R N.j.}                             ",
"                                                                _.G g.0X9XoX&.#.Z.^.v.<.0.' c.  N.z.                            ",
"                                                                _.6.-.=X9XeXg.@.Z.T.v.n.b.m.[.                                  ",
"                                                                %XH.y.=X1X1XoX*.p.p.Z.A.p.OX                                    ",
"                                                                  (.-._.9XeX*X~.*.9.a.Z.t.a.                                    ",
"                                                                  .XO.P.wX,X6X~.t.7._ Y.s.t.                                    ",
"                                                                    =.G.#X,X,XR.!.9.C p.!.h.*X                                  ",
"                                                                    =.r.d.u.;X].Y.) k ) .X&X}.                                  ",
"                                                                      o.(.&XwXR.U.N y z %.`.                                    ",
"                                                                      L.1XT.A.`.Q.k - p C 9.0.0.                                ",
"                                                                      B.3.Z i $.i.N - 5 i i V b.                                ",
"                                                                      j k.k.| !   8.p : ; 8 f l.                                ",
"                                                                      3.k.X.(       ` % r 2 g W                                 ",
"                                                                      0.j.Q ..        5 ; 2 4 f A.                              ",
"                                                                    ` S.} s x.        n 3 r d s T.                              ",
"                                                                    %.9.$.!         T.G t t a `                                 ",
"                                                                    Q.+.j Y.        h.9.u - z OX                                ",
"                                                                  &X/.-.d.        =Xg.u.C y I.                                  ",
"                                                                Y. Xy.J.          R.g.5.) 5.                                    ",
"                                                                D L e.            n._ N F  X                                    ",
"                                                              U.O.H (.          ~.J j y h.                                      ",
"                                                              E.q.q.            I.:.C +.9X                                      ",
"                                                            qXd.=.              U.&.D !.                                        ",
"                                                            I.q.8X            8XH.O.y.                                          ",
"                                                          8Xw.(.            Q.C.d.q.                                            ",
"                                                          XXB.             X< x f.J.                                            ",
"                                                          L.            XX) q # 1 e.                                            ",
"                                                    H   C.Q.              w = = . h e.                                          ",
"                                                    * < w B.                F O X H                                             ",
"                                                    > * e                     F @ >                                             ",
"                                                  l > * H                                                                       ",
"                                                  c h >                                                                         ",
"                                                  B c l                                                                         ",
"                                                  q.=.                                                                          ",
"                                                                                                                                "
};
