/* XPM */
static char *_58e3cd6a66247cbc69ba41ad623e39acMU3Mk5kENJHzZVz[] = {
/* columns rows colors chars-per-pixel */
"64 64 247 2 ",
"   c #090605",
".  c #180A07",
"X  c #140C0B",
"o  c #1B0E0C",
"O  c #14110D",
"+  c #1C110D",
"@  c #170F10",
"#  c #161416",
"$  c #1B1211",
"%  c #1B1A1E",
"&  c #22130D",
"*  c #28120C",
"=  c #231512",
"-  c #241A15",
";  c #2A1B15",
":  c #281816",
">  c #2B1D1B",
",  c #351D17",
"<  c #2D211D",
"1  c #372116",
"2  c #33231E",
"3  c #3B241D",
"4  c #1E1E20",
"5  c #261E23",
"6  c #2C2322",
"7  c #29252A",
"8  c #352622",
"9  c #342826",
"0  c #3B2A24",
"q  c #3B2D2A",
"w  c #2D2C32",
"e  c #383434",
"r  c #421D17",
"t  c #49261E",
"y  c #442925",
"u  c #4B2C23",
"i  c #422D2A",
"p  c #4C2C2A",
"a  c #42322B",
"s  c #4C322B",
"d  c #53342B",
"f  c #5B372C",
"g  c #493A36",
"h  c #533A32",
"j  c #553A37",
"k  c #5B3C33",
"l  c #622C2C",
"z  c #65372A",
"x  c #683C34",
"c  c #4E433F",
"v  c #54433C",
"b  c #5D433C",
"n  c #63453C",
"m  c #694638",
"M  c #754738",
"N  c #7C4B3C",
"B  c #7E503E",
"V  c #583D44",
"C  c #5A4841",
"Z  c #585353",
"A  c #654A44",
"S  c #6C4C43",
"D  c #734D43",
"F  c #7A4C41",
"G  c #6A5249",
"H  c #735145",
"J  c #7D5242",
"K  c #79584D",
"L  c #665B57",
"P  c #7C5A54",
"I  c #72625F",
"U  c #696664",
"Y  c #766965",
"T  c #7D7776",
"R  c #834939",
"E  c #88523B",
"W  c #894D42",
"Q  c #914447",
"!  c #845443",
"~  c #895747",
"^  c #845B4C",
"/  c #8B5C4C",
"(  c #915A44",
")  c #945B4A",
"_  c #825F55",
"`  c #8B5E51",
"'  c #925E52",
"]  c #995B56",
"[  c #AA5854",
"{  c #95624C",
"}  c #9B634E",
"|  c #8C6353",
" . c #89655B",
".. c #936354",
"X. c #9B6353",
"o. c #976958",
"O. c #9C6B5C",
"+. c #A8604E",
"@. c #A56956",
"#. c #A36C5C",
"$. c #AC6E5B",
"%. c #B16C5B",
"&. c #AB7155",
"*. c #A7735D",
"=. c #AA715B",
"-. c #B3745B",
";. c #B9765E",
":. c #875C6B",
">. c #9B6D64",
",. c #987368",
"<. c #877172",
"1. c #997A77",
"2. c #A66D63",
"3. c #A47364",
"4. c #AC7464",
"5. c #A4756A",
"6. c #AE7569",
"7. c #AC746F",
"8. c #AC7A6B",
"9. c #B37562",
"0. c #B77567",
"q. c #B47B63",
"w. c #BA7C64",
"e. c #B37C6B",
"r. c #BA7C6B",
"t. c #B87D71",
"y. c #C77B66",
"u. c #C37D6B",
"i. c #D77E6A",
"p. c #C67972",
"a. c #96837C",
"s. c #AF816B",
"d. c #B9826A",
"f. c #AC8477",
"g. c #BD8372",
"h. c #BA8A77",
"j. c #C5856B",
"k. c #D4866D",
"l. c #DC8A6E",
"z. c #C38573",
"x. c #CB8473",
"c. c #CB8B74",
"v. c #C48978",
"b. c #CB8B7C",
"n. c #D38B73",
"m. c #DC8C74",
"M. c #D78978",
"N. c #C6927A",
"B. c #CB927D",
"V. c #D4937C",
"C. c #DC937B",
"Z. c #DA957A",
"A. c #E18A6E",
"S. c #E28D72",
"D. c #E58B7A",
"F. c #E49276",
"G. c #E89176",
"H. c #E4947B",
"J. c #E9957B",
"K. c #E5997C",
"L. c #EA997E",
"P. c #9F7380",
"I. c #AF7B8D",
"U. c #908B87",
"Y. c #948A89",
"T. c #AF928F",
"R. c #BC9488",
"E. c #B2A49F",
"W. c #A9A5A4",
"Q. c #B8AFAE",
"!. c #CA9786",
"~. c #D39187",
"^. c #D49484",
"/. c #DD9683",
"(. c #D49A84",
"). c #DC9B83",
"_. c #DA948A",
"`. c #D49B8B",
"'. c #DB9D8A",
"]. c #C89E91",
"[. c #E39682",
"{. c #E59C83",
"}. c #EA9C83",
"|. c #E79C88",
" X c #EB9D8A",
".X c #F09882",
"XX c #E79D92",
"oX c #D7A18C",
"OX c #DDA18D",
"+X c #C9A393",
"@X c #CFA692",
"#X c #D3A393",
"$X c #D9A696",
"%X c #DCAD9D",
"&X c #EDA186",
"*X c #E4A38B",
"=X c #E6A68B",
"-X c #ECA48B",
";X c #F1A58B",
":X c #E4A493",
">X c #EBA596",
",X c #E5A995",
"<X c #EBAB94",
"1X c #E5AC9B",
"2X c #EAAC9B",
"3X c #F2AB98",
"4X c #ECB197",
"5X c #E4B19D",
"6X c #ECB29C",
"7X c #F3B39C",
"8X c #C89AAA",
"9X c #DBAEA1",
"0X c #DDB2A3",
"qX c #DBB4A8",
"wX c #D0BBB6",
"eX c #E3B3A4",
"rX c #EBB5A3",
"tX c #E7B8A9",
"yX c #EBBBAB",
"uX c #F2B8A6",
"iX c #E5BEB2",
"pX c #ECBEB4",
"aX c #DEC3B3",
"sX c #ECC1AC",
"dX c #EDC2B4",
"fX c #E8C4B8",
"gX c #F3C5B4",
"hX c #F6C6B9",
"jX c #FFB1C2",
"kX c #C9C2C4",
"lX c #D1CBCB",
"zX c #D4D1CF",
"xX c #D9D6D5",
"cX c #EBCEC4",
"vX c #EAD5CB",
"bX c #E2DCDB",
"nX c #E4E3DE",
"mX c #EBE9E8",
"MX c #F5EAE7",
"NX c #ECF1EF",
"BX c #F4F1EE",
"VX c #F5F4F3",
"CX c #F9F6F4",
"ZX c #FAFAF6",
"AX c #F7FBF9",
"SX c #FDFDFC",
"DX c white",
/* pixels */
"DXDXDXDXDXDXDXDXDXDXDXDXDXDXDXDXDXDXDXDXDXDXDXDXDXDXmXbXmXmXDXDXmXwXNXDXDXDXDXDXDXDXDXDXDXDXDXDXDXDXDXDXDXDXDXDXDXDXDXDXDXDXDXDX",
"DXDXDXDXDXDXDXDXDXDXDXDXDXDXDXDXDXDXDXDXDXDXDXDXzXE.G C v g U U <.g Z W.lXxXDXDXDXDXDXDXDXDXDXDXDXDXDXDXDXDXDXDXDXDXDXDXDXDXDXDX",
"DXDXDXDXDXDXDXDXDXDXDXDXDXDXDXDXDXDXDXDXDXDXzXU C h 2 - - - - - = 8 0 2 < 9 U.VXDXDXDXDXDXDXDXDXDXDXDXDXDXDXDXDXDXDXDXDXDXDXDXDX",
"DXDXDXDXDXDXDXDXDXDXDXDXDXDXDXDXDXDXDXDXDXnXc 2 C a - + + - > $ 6 9 0 0 8 > 2 Z W.DXDXDXDXDXDXDXDXDXDXDXDXDXDXDXDXDXDXDXDXDXDXDX",
"DXDXDXDXDXDXDXDXDXDXDXDXDXDXDXDXDXDXDXDXVXL & v v - X X @ X X $ 6 6 < 0 a 2 , q a a.DXDXDXDXDXDXDXDXDXDXDXDXDXDXDXDXDXDXDXDXDXDX",
"DXDXDXDXDXDXDXDXDXDXDXDXDXDXDXDXDXDXDXDXbXq g A i o $ O     @ @ $ $ - 8 a 2 : < g g Y xXDXDXDXDXDXDXDXDXDXDXDXDXDXDXDXDXDXDXDXDX",
"DXDXDXDXDXDXDXDXDXDXDXDXDXDXDXDXDXDXDXDXY.g A v 0 X X $ X X $ X X X $ 2 0 a 2 = 9 v y I NXDXDXDXDXDXDXDXDXDXDXDXDXDXDXDXDXDXDXDX",
"DXDXDXDXDXDXDXDXDXDXDXDXDXDXDXDXDXDXDXlXg A h 0 3 X   % $ X @ X X o + : 2 a a < 8 g g C Q.DXDXDXDXDXDXDXDXDXDXDXDXDXDXDXDXDXDXDX",
"DXDXDXDXDXDXDXDXDXDXDXDXDXDXDXDXDXDXnXC v A 3 = : X X + + X $ + X X X $ : > g q q g g j Y VXDXDXDXDXDXDXDXDXDXDXDXDXDXDXDXDXDXDX",
"DXDXDXDXDXDXDXDXDXDXDXDXDXDXDXDXDXDXU.9 C a & + & . X + & = - : = o o o + o 8 0 0 q a 0 v T.DXDXDXDXDXDXDXDXDXDXDXDXDXDXDXDXDXDX",
"DXDXDXDXDXDXDXDXDXDXDXDXDXDXDXDXDXzXg g i : o o : = = : , , , i y y y * & . = 2 = : < : h 9 W.DXDXDXDXDXDXDXDXDXDXDXDXDXDXDXDXDX",
"DXDXDXDXDXDXDXDXDXDXDXDXDXDXDXDXBXL 9 > > = : y 3 3 3 3 y s s b A S G h 3 * * : = & = = 0 6 Z VXDXDXDXDXDXDXDXDXDXDXDXDXDXDXDXDX",
"DXDXDXDXDXDXDXDXDXDXDXDXDXDXDXDXU.- <     3 m N J B J ' O./ J ~ X.2.8.3.| D u r 3 , . $ : 6 q W.DXDXDXDXDXDXDXDXDXDXDXDXDXDXDXDX",
"DXDXDXDXDXDXDXDXDXDXDXDXDXDXDXW.- $ X X 3 ..r.j.w.%.u.n.C.j.;.y.x.M.C.C.C.V.r.X.! M , o o X $ Z mXDXDXDXDXDXDXDXDXDXDXDXDXDXDXDX",
"DXDXDXDXDXDXDXDXDXDXDXDXDXDXDXL X : = > | n.k.m.y.y.k.m.K.m.k.C.H.H.H.F.S.m.F.C.k.-.( t = : > 9 kXDXDXDXDXDXDXDXDXDXDXDXDXDXDXDX",
"DXDXDXDXDXDXDXDXDXDXDXDXDXDXDXY.= = - k j.m.m.m.m.F.F.K.K.H.H.K.K.J.F.S.l.m.l.l.m.n.y.} , - q q xXDXDXDXDXDXDXDXDXDXDXDXDXDXDXDX",
"DXDXDXDXDXDXDXDXDXDXDXDXDXDXDXY.- $ < o./.m.m.F.K.K.}. X}.}.}.L.}.L.J.S.S.S.l.m.m.m.n.V.x & > < zXDXDXDXDXDXDXDXDXDXDXDXDXDXDXDX",
"DXDXDXDXDXDXDXDXDXDXDXDXDXDXDXU.: : h N.=XH.m.K.K.L.}.}. X;X&X}.L.L.J.F.S.S.A.S.m.H.C.).*.1 : 6 xXDXDXDXDXDXDXDXDXDXDXDXDXDXDXDX",
"DXDXDXDXDXDXDXDXDXDXDXDXDXDXDXW.: q _ !.:X{.F.L.J.F.J.L.&X&X}.L.L.K.S.F.S.S.m.F.F.{.).OX!.d : 8 xXDXDXDXDXDXDXDXDXDXDXDXDXDXDXDX",
"DXDXDXDXDXDXDXDXDXDXDXDXDXDXDXY.0 C  .(.,X-XF.J.F.G.G.J.}.K.K.K.F.F.S.S.A.l.m.F.H.|.{.,X%XD : 8 zXDXDXDXDXDXDXDXDXDXDXDXDXDXDXDX",
"DXDXDXDXDXDXDXDXDXDXDXDXDXDXDXY g G ,.$X1X=XF.F.F.F.G.F.F.K.F.K.F.F.S.l.A.S.m.m.m.C.).,XeX| , : wXDXDXDXDXDXDXDXDXDXDXDXDXDXDXDX",
"DXDXDXDXDXDXDXDXDXDXDXDXDXDXCXL G  .f.1XrX,XF.S.F.K.L.}.{.}.}.K.L.J.J.K.F.F.S.F.H.H.).1XtXs.s : W.DXDXDXDXDXDXDXDXDXDXDXDXDXDXDX",
"DXDXDXDXDXDXDXDXDXDXDXDXDXDXmXG  .1.$XrXtX4XC.S.F.}.&X-X<X<X7X7X<X-X-X&X}.K.}.}.{.C.*XeXyX].P 3 U.DXDXDXDXDXDXDXDXDXDXDXDXDXDXDX",
"DXDXDXDXDXDXDXDXDXDXDXDXDXDXxXP f.].tXyXeX:XK.m.n.C./. X3X2X7X7X2XuX7X-X X}.}.&X-X{.).eXiX$X,.S T DXDXDXDXDXDXDXDXDXDXDXDXDXDXDX",
"DXDXDXDXDXDXDXDXDXDXDXDXDXDXxX,.R.eXgXyX1X$Xz.@.} @.X.@.v.V.{.-X<X3X&X{.{.[.[././.C.{.1XtX0Xf. .Y VXDXDXDXDXDXDXDXDXDXDXDXDXDXDX",
"DXDXDXDXDXDXDXDXDXDXDXDXDXDXbXa.R.iXdXyXeX!.X.! M z f M #.w.M.{. X|.[.C.j.$.X.X.#.#.e.$XtXtX+X5.<.mXDXDXDXDXDXDXDXDXDXDXDXDXDXDX",
"DXDXDXDXDXDXDXDXDXDXDXDXDXDXBXT.].iXpXiX%XN.g.r.6.O.! N ' 9.n.{.&X{.C.c.w.( N z z J o.f.%XeXeXh.1.mXDXDXDXDXDXDXDXDXDXDXDXDXDXDX",
"DXDXDXDXDXDXDXDXDXDXDXDXBXqXmXE.R.qXpXpX5X`.(.b.0.g.8.O.W W 9.K.;X}.C.x.@.N M M ! X.3.s.].0XeXR.1.mXDXDXDXDXDXDXDXDXDXDXDXDXDXDX",
"DXDXDXDXDXDXDXDXDXDXDXDXCX:X`.+X!.$XiXpX$X^.w.{ D k A K 7.#.X.Z.&X{.,X' z ! 6.t.6.6.v.].#XeXqXR.E.vXcXDXDXDXDXDXDXDXDXDXDXDXDXDX",
"DXDXDXDXDXDXDXDXDXDXDXDXDXdX>XOX+X].dXyX:X^.r.#.>.y ,  .h.~.g.).;X&X(.M O.>.A h k ,.3.!.$XeX9XR.R.b.tXDXDXDXDXDXDXDXDXDXDXDXDXDX",
"DXDXDXDXDXDXDXDXDXDXDXDXDXaXyXuX$X+XdXyX:X^.OX6X$Xv.e.!._.*XB.*X}.}.'.2.e.R.S t K f.s.B.$X0X9Xh.v.*XaXDXDXDXDXDXDXDXDXDXDXDXDXDX",
"DXDXDXDXDXDXDXDXDXDXDXDXDXdX,XrX5X$XpXrX=X=X4X:X'.|.).^.'.V.).-XK.K.,Xz.b.`.).b.B.,X,XOX1XeX0X!.eX1Xg.DXDXDXDXDXDXDXDXDXDXDXDXDX",
"DXDXDXDXDXDXDXDXDXDXDXDXDXgX<X6X5X%XdX5X<X<X<X<X<X,X:X,X).).<X&XK.}.2X,XB.^.).V.^.OX:X:X,XrXeX#XtX^.t.ZXDXDXDXDXDXDXDXDXDXDXDXDX",
"DXDXDXDXDXDXDXDXDXDXDXDXCXgX7Xy.(.eXdXrX<X=X=X<X3X-X-X&XH.-X7X-XD.}.6X6X<X).K.{.&X*X*X=X=X1XtX%X'.,X%XVXDXDXDXDXDXDXDXDXDXDXDXDX",
"DXDXDXDXDXDXDXDXDXDXDXDXCX,X|.i.c.0XdXuX4X<X}.}.K.J.}.}.}.3X<X|.D.m.:XeX2X{.F.J.F.H.K.&X<XrXgX1X+.=XcXCXDXDXDXDXDXDXDXDXDXDXDXDX",
"DXDXDXDXDXDXDXDXDXDXDXDXMX XS.K.).0XdXhXuX<X}.J.|.;X3X3X}.3X>XD.D.i./.2XrXC.L.F.D.D.S.{.2XyXdX1X+.y.eXDXDXDXDXDXDXDXDXDXDXDXDXDX",
"DXDXDXDXDXDXDXDXDXDXDXDXMX.X.X7XOX].yXhXhXuX X}.-X7X7X;Xm./.:X[.[.l.XX,X^.n.-X XH.F.H.*XyXhXdX%X%.m.XXBXDXDXDXDXDXDXDXDXDXDXDXDX",
"DXDXDXDXDXDXDXDXDXDXDXDXMX|.}.=XOXh.%XdXhXuX&X}. X3X&Xm.>XhXyXXXrX[.rXcXuX[.}.;X}.K.L.7XhXhXdX].0.i.XXCXDXDXDXDXDXDXDXDXDXDXDXDX",
"DXDXDXDXDXDXDXDXDXDXDXDXZX:XuXsX:Xh.N.rXsXuX-XK.}.}.m.F.x.2.t./././.#X5.6.v.n.;X}.H.H.2XhXgXeXg.%.C.5XAXDXDXDXDXDXDXDXDXDXDXDXDX",
"DXDXDXDXDXDXDXDXDXDXDXDXDXfXuXgX<Xc.d.%XrX1X XH.F.C.C.}.;.R R r.x.~.#.l W R y.{.F.F.K.1XyXeX$Xq.b.uX0XZXDXDXDXDXDXDXDXDXDXDXDXDX",
"DXDXDXDXDXDXDXDXDXDXDXDXDXZXhXuXuXB.h.!.OXOX*XC.C.K.|.H.y.#.X./ ' ~ M o.e.#.x.[.C.m./.1X%X1X`.=.`.tXvXDXDXDXDXDXDXDXDXDXDXDXDXDX",
"DXDXDXDXDXDXDXDXDXDXDXDXDXDXMXpX9XaXh.z.B.(.=X).{.n.u.%.( E M M z t f M { O.9.x.V.C.'.5X$XoXN.) `.dXCXDXDXDXDXDXDXDXDXDXDXDXDXDX",
"DXDXDXDXDXDXDXDXDXDXDXDXDXDXDXZXVXVXh.z.c.V.=X=Xn.} E E E E R ) R ~ ! ! M N ~ ( -.V.2X5X(.!.h.R.qXMXDXDXDXDXDXDXDXDXDXDXDXDXDXDX",
"DXDXDXDXDXDXDXDXDXDXDXDXDXDXDXDXDXDX].j.j.d.Z.).-.( ) { &.9.p.n.9.0.0.9.} X.( E ( w.,X(.d.B.v.BXDXDXDXDXDXDXDXDXDXDXDXDXDXDXDXDX",
"DXDXDXDXDXDXDXDXDXDXDXDXDXDXDXDXDXDXqXd.c.&.j.c.&.( R W x x ' 5.2.2.2.5.~ x z N ~ @.(.j.&.j.R.VXDXDXDXDXDXDXDXDXDXDXDXDXDXDXDXDX",
"DXDXDXDXDXDXDXDXDXDXDXDXDXDXDXDXDXDXvXd.j.&.;.d.=.( ) z.p.] N F z x f f l x R ~ { @.z.q.-.j.wXDXDXDXDXDXDXDXDXDXDXDXDXDXDXDXDXDX",
"DXDXDXDXDXDXDXDXDXDXDXDXDXDXDXDXDXDXBXh.j.w.&.&.@.E 9.V./.XX/.p.[ [ Q @.`.^.x.$.} e.d.=.w.d.bXDXDXDXDXDXDXDXDXDXDXDXDXDXDXDXDXDX",
"DXDXDXDXDXDXDXDXDXDXDXDXDXDXDXDXDXDXCX#Xw.q.=.&.{ ! 4.x.n.^.~.XX>XXX_._.,Xb.c.e.} *.q.;.j.+XAXDXDXDXDXDXDXDXDXDXDXDXDXDXDXDXDXDX",
"DXDXDXDXDXDXDXDXDXDXDXDXDXDXDXDXDXDXZXeXw.d.q.4.o...X.9.r.u.%.-.$.$.-.g.z.z.x.$...3.*.d.;.aXDXDXDXDXDXDXDXDXDXDXDXDXDXDXDXDXDXDX",
"DXDXDXDXDXDXDXDXDXDXDXDXDXDXDXDXDXDXDXdXB.*.d.e.8.O.M ^ $.w.&.} ! ~ X.9.9.*.#./ | 5.*.*.&.fXDXDXDXDXDXDXDXDXDXDXDXDXDXDXDXDXDXDX",
"DXDXDXDXDXDXDXDXDXDXDXDXDXDXDXDXDXDXZXiX'.#.3.h.s.^ f m #.c.n.@.N M X.0.j.$.^ M | ..#.{ 4.cXDXDXDXDXDXDXDXDXDXDXDXDXDXDXDXDXDXDX",
"DXDXDXDXDXDXDXDXDXDXDXDXDXDXDXDXDXDXZXiXOXg.~ o.>.K m m / u.C.u.%.0.u.n.x.9.| H o.>.| ..e.cXDXDXDXDXDXDXDXDXDXDXDXDXDXDXDXDXDXDX",
"DXDXDXDXDXDXDXDXDXDXDXDXDXDXDXDXDXDXDXdX,X^...H K K m m / @.%.r.x.n.u.-.@...^ _  .| J ..t.fXDXDXDXDXDXDXDXDXDXDXDXDXDXDXDXDXDXDX",
"DXDXDXDXDXDXDXDXDXDXDXDXDXDXDXDXDXDXDXiX:X'.4.D n n n k ^ J #.X.@.4.*.O.E F _ _ K K ` O.v.iXDXDXDXDXDXDXDXDXDXDXDXDXDXDXDXDXDXDX",
"DXDXDXDXDXDXDXDXDXDXDXDXDXDXDXDXDXDXZXiX*X).g.J b k n m H m o...N B ../ J D K A S K / 3.!.iXDXDXDXDXDXDXDXDXDXDXDXDXDXDXDXDXDXDX",
"DXDXDXDXDXDXDXDXDXDXDXDXDXDXDXDXDXDXDXiX*X(.r.! b S n n k m / ~ z z / N m n b b S S ~ #.!.9XbXDXDXDXDXDXDXDXDXDXDXDXDXDXDXDXDXDX",
"DXDXDXDXDXDXDXDXDXDXDXDXDXDXDXDXDXkXU.@X,X'.0./ D A k h h k m M z z m x k h k A m m / e.^.,Xg Q.DXDXDXDXDXDXDXDXDXDXDXDXDXDXDXDX",
"DXDXDXDXDXDXDXDXDXDXDXDXDXDXDXxXZ     ].<X).z.*.J H n h d u d f u d d d u d n S m M o.g.`.2X2 X U W.VXDXDXDXDXDXDXDXDXDXDXDXDXDX",
"DXDXDXDXDXDXDXDXDXDXDXDXDXDXVXe     i $X2X'.z.z.O.^ K S k d h d u d p p h n H S m ~ 3.t.`.1XJ * 6 O Z xXDXDXDXDXDXDXDXDXDXDXDXDX",
"DXDXDXDXDXDXDXDXDXDXDXDXDXDXT   : m !.1X2X:XB.c.e...`  .D d u y u s u k S D ^ J ~ ..e.^.'.1Xc.z 9 % O e T.kXNXDXDXDXDXDXDXDXDXDX",
"DXDXDXDXDXDXDXDXDXDXDXDXzXU 7 s $.c.=X,X2X:X'.z.g.e.3.5.| m k u y d k x D o...^ ` #.B.^.:X1X*X' 6 % # w P.I.Y.Q.VXDXDXDXDXDXDXDX",
"DXDXDXDXDXDXDXDXDXDXxX<.w 7 w K k.V.4X,X2X:X:X^.z.e.4.3.O.` H S S K D ^ ' O.` ~ O.t.^.'.1X,X,XO.5 % % 5 5 g <.P.bXDXDXDXDXDXDXDX",
"DXDXDXDXDXDXDXDXVXkX8X:.6 w w g c.*X7X,X2X:X:X:X^.b.r.6.3...' ..O.>.` X.2.6.#.' 6.b.'.:X,X,X2X` % % % 7 I.1.V i lXDXDXDXDXDXDXDX",
"DXDXDXDXDXDXDXmXQ.1.V 5 4 7 7 7 s.*XrX1X,X,X,X:X_.^.b.t.t.e.4.#.4.4.#.2.4.t.6.6.z.`.OX:X,X,X7XS # % % 5 I.jXjXT.lXDXDXDXDXDXDXDX"
};
